# xmcd CD database file generated by OrangeCD 5.2
#
# Track frame offsets:
#	150
#	21260
#	39362
#	51160
#	64892
#	78802
#	93900
#	109777
#	121082
#	134225
#	147640
#	163700
#	181975
#	201767
#	213620
#	228832
#	249460
#	266207
#	278602
#
# Disc length: 3889 seconds
#
# Revision: 2
# Processed by: cddbd v1.5.1PL0 Copyright (c) Steve Scherf et al.
# Submitted via: OrangeCD 5.2
#
DISCID=160f2f13
DTITLE=Bobby Goldsboro - Summer The Firs Time
DYEAR=1900
DGENRE=Country
TTITLE0=Summer the first time
TTITLE1=Honey
TTITLE2=Watching Scotty Grow
TTITLE3=Goodbye Marie
TTITLE4=Merci - Thankyou
TTITLE5=Love ain't hurt anyone
TTITLE6=The roundup saloon
TTITLE7=Outrun the sun
TTITLE8=Love is only for fools
TTITLE9=Hit and run lover
TTITLE10=You'll never find nobody
TTITLE11=Alice doesnt live here anymore
TTITLE12=Lucy and the stranger
TTITLE13=The spirit of the west
TTITLE14=Tennessee your'e a ady
TTITLE15=Fools
TTITLE16=He'll have to go
TTITLE17=I can't help it if I'm still in love with you
TTITLE18=Me and the elephants
EXTD=
EXTT0=
EXTT1=
EXTT2=
EXTT3=
EXTT4=
EXTT5=
EXTT6=
EXTT7=
EXTT8=
EXTT9=
EXTT10=
EXTT11=
EXTT12=
EXTT13=
EXTT14=
EXTT15=
EXTT16=
EXTT17=
EXTT18=
PLAYORDER=
